<svg width="70" height="22" viewBox="0 0 70 22" fill="none" xmlns="http://www.w3.org/2000/svg">
<path d="M65.7076 7.51749C65.1677 5.68178 63.683 4.54796 61.5503 4.54796C58.5268 4.54796 56.4751 6.8696 56.4751 10.973C56.4751 15.1033 58.4728 17.4519 61.5773 17.4519C64.3713 17.4519 66.0316 15.8727 66.0856 13.4026H61.8472V10.3521H70V12.7817C70 17.9109 66.4905 21.0424 61.5503 21.0424C56.0701 21.0424 52.3447 17.209 52.3447 11.0269C52.3447 4.68294 56.3131 0.95752 61.4693 0.95752C65.8696 0.95752 69.2711 3.6571 69.811 7.51749H65.7076Z" fill="#F42A67"/>
<path d="M49.8074 11C49.8074 17.371 45.839 21.0424 40.6828 21.0424C35.4726 21.0424 31.5312 17.344 31.5312 11C31.5312 4.62895 35.4726 0.95752 40.6828 0.95752C45.839 0.95752 49.8074 4.62895 49.8074 11ZM45.677 11C45.677 6.8156 43.7063 4.54796 40.6828 4.54796C37.6593 4.54796 35.6616 6.8156 35.6616 11C35.6616 15.1843 37.6593 17.4519 40.6828 17.4519C43.7063 17.4519 45.677 15.1843 45.677 11Z" fill="#F42A67"/>
<path d="M17.6011 20.7725V1.22754H21.6504V17.425H30.0731V20.7725H17.6011Z" fill="#F42A67"/>
<path d="M0 20.7725V1.22754H7.77479C12.0941 1.22754 14.2538 3.30621 14.2538 6.24875C14.2538 8.5434 12.769 9.97417 10.7443 10.4331V10.6221C12.958 10.7301 15.0367 12.4848 15.0367 15.3733C15.0367 18.4778 12.715 20.7725 8.28771 20.7725H0ZM7.47783 17.425C9.82646 17.425 10.8253 16.4532 10.8253 14.9954C10.8253 13.3486 9.5835 12.1878 7.58581 12.1878H4.04937V17.425H7.47783ZM7.18088 9.40726C8.88161 9.40726 10.1504 8.46241 10.1504 6.89665C10.1504 5.49287 9.12457 4.52102 7.26187 4.52102H4.04937V9.40726H7.18088Z" fill="#F42A67"/>
</svg>
