<svg width="130" height="38" viewBox="0 0 130 38" fill="none" xmlns="http://www.w3.org/2000/svg">
<path d="M122.029 12.1828C121.026 8.77362 118.269 6.66795 114.308 6.66795C108.693 6.66795 104.883 10.9796 104.883 18.6001C104.883 26.2707 108.593 30.6325 114.358 30.6325C119.547 30.6325 122.63 27.6996 122.731 23.1122H114.859V17.447H130V21.9591C130 31.4848 123.483 37.3004 114.308 37.3004C104.131 37.3004 97.2119 30.1813 97.2119 18.7003C97.2119 6.91863 104.582 0 114.158 0C122.33 0 128.647 5.0135 129.649 12.1828H122.029Z" fill="white"/>
<path d="M92.499 18.6502C92.499 30.4821 85.1292 37.3004 75.5534 37.3004C65.8773 37.3004 58.5576 30.4319 58.5576 18.6502C58.5576 6.81836 65.8773 0 75.5534 0C85.1292 0 92.499 6.81836 92.499 18.6502ZM84.8283 18.6502C84.8283 10.8793 81.1685 6.66795 75.5534 6.66795C69.9383 6.66795 66.2283 10.8793 66.2283 18.6502C66.2283 26.4211 69.9383 30.6325 75.5534 30.6325C81.1685 30.6325 84.8283 26.4211 84.8283 18.6502Z" fill="white"/>
<path d="M32.688 36.7992V0.501465H40.2082V30.5824H55.8503V36.7992H32.688Z" fill="white"/>
<path d="M0 36.7992V0.501465H14.4389C22.4605 0.501465 26.4713 4.36186 26.4713 9.82657C26.4713 14.088 23.7138 16.7452 19.9537 17.5975V17.9484C24.0648 18.149 27.9252 21.4077 27.9252 26.7722C27.9252 32.5377 23.6136 36.7992 15.3914 36.7992H0ZM13.8874 30.5824C18.2491 30.5824 20.1041 28.7776 20.1041 26.0703C20.1041 23.0121 17.7979 20.8563 14.0879 20.8563H7.52025V30.5824H13.8874ZM13.3359 15.6924C16.4944 15.6924 18.8508 13.9376 18.8508 11.0298C18.8508 8.42279 16.9456 6.61793 13.4863 6.61793H7.52025V15.6924H13.3359Z" fill="white"/>
</svg>
