<svg width="100" height="100" viewBox="0 0 100 100" fill="none" xmlns="http://www.w3.org/2000/svg">
<path d="M24 84V16H50.8869C65.8241 16 73.2926 23.232 73.2926 33.4696C73.2926 41.453 68.158 46.4309 61.1562 48.0276V48.6851C68.8115 49.0608 76 55.1657 76 65.2155C76 76.0166 67.9713 84 52.6607 84H24ZM49.86 72.3536C57.982 72.3536 61.4363 68.9724 61.4363 63.9006C61.4363 58.1713 57.1418 54.1326 50.2334 54.1326H38.0036V72.3536H49.86ZM48.833 44.4586C54.7145 44.4586 59.1023 41.1713 59.1023 35.7238C59.1023 30.8398 55.5548 27.4586 49.1131 27.4586H38.0036V44.4586H48.833Z" fill="#F42A67"/>
</svg>
