<svg width="40" height="40" viewBox="0 0 40 40" fill="none" xmlns="http://www.w3.org/2000/svg">
<rect width="40" height="40" fill="#5188FF"/>
<path d="M28.5303 27.3713C27.4064 27.3713 26.4345 27.1325 25.6145 26.655C24.7994 26.1727 24.1699 25.5022 23.7262 24.6437C23.2824 23.7803 23.0605 22.7794 23.0605 21.6411C23.0605 20.4932 23.2824 19.4899 23.7262 18.6313C24.1699 17.768 24.7994 17.0975 25.6145 16.62C26.4345 16.1377 27.4064 15.8965 28.5303 15.8965C29.6541 15.8965 30.6236 16.1377 31.4387 16.62C32.2587 17.0975 32.8906 17.768 33.3343 18.6313C33.7781 19.4899 34 20.4932 34 21.6411C34 22.7794 33.7781 23.7803 33.3343 24.6437C32.8906 25.5022 32.2587 26.1727 31.4387 26.655C30.6236 27.1325 29.6541 27.3713 28.5303 27.3713ZM28.5447 24.9837C29.056 24.9837 29.4829 24.839 29.8253 24.5496C30.1678 24.2554 30.4258 23.8551 30.5995 23.3486C30.7779 22.8421 30.8672 22.2658 30.8672 21.6194C30.8672 20.9731 30.7779 20.3967 30.5995 19.8902C30.4258 19.3838 30.1678 18.9834 29.8253 18.6892C29.4829 18.395 29.056 18.2479 28.5447 18.2479C28.0286 18.2479 27.5945 18.395 27.2424 18.6892C26.8951 18.9834 26.6323 19.3838 26.4538 19.8902C26.2802 20.3967 26.1933 20.9731 26.1933 21.6194C26.1933 22.2658 26.2802 22.8421 26.4538 23.3486C26.6323 23.8551 26.8951 24.2554 27.2424 24.5496C27.5945 24.839 28.0286 24.9837 28.5447 24.9837Z" fill="white"/>
<path d="M7.37012 12.3379H11.2336L15.3142 22.2933H15.4879L19.5684 12.3379H23.432V27.1553H20.3932V17.511H20.2702L16.4357 27.0829H14.3664L10.5318 17.4748H10.4088V27.1553H7.37012V12.3379Z" fill="white"/>
</svg>
