<svg width="81" height="24" viewBox="0 0 81 24" fill="none" xmlns="http://www.w3.org/2000/svg">
<path d="M70.0235 23.4874C70.9596 23.8294 72.0822 24.0004 73.3915 24.0004C74.7829 24.0004 76.0131 23.7994 77.082 23.3974C78.1572 23.0014 78.9984 22.4074 79.6056 21.6154C80.2128 20.8234 80.5164 19.8394 80.5164 18.6633V4.7041H76.5033L76.5223 16.0803V18.6093C76.5223 19.5574 76.2345 20.2324 75.6589 20.6344C75.0897 21.0424 74.3655 21.2464 73.4863 21.2464C72.8981 21.2464 72.3985 21.1714 71.9874 21.0214C71.5826 20.8774 71.2569 20.6854 71.0102 20.4454C70.7635 20.2054 70.5833 19.9474 70.4694 19.6714L66.7314 20.1484C66.8959 20.8744 67.2532 21.5284 67.8035 22.1104C68.3538 22.6924 69.0938 23.1514 70.0235 23.4874Z" fill="#5188FF"/>
<path d="M59.4331 18.701C57.9594 18.701 56.685 18.404 55.6097 17.81C54.5408 17.21 53.7154 16.376 53.1336 15.3079C52.5517 14.2339 52.2607 12.9889 52.2607 11.5729C52.2607 10.1449 52.5517 8.89683 53.1336 7.82882C53.7154 6.7548 54.5408 5.92078 55.6097 5.32677C56.685 4.72676 57.9594 4.42676 59.4331 4.42676C60.9068 4.42676 62.1781 4.72676 63.247 5.32677C64.3222 5.92078 65.1507 6.7548 65.7326 7.82882C66.3145 8.89683 66.6054 10.1449 66.6054 11.5729C66.6054 12.9889 66.3145 14.2339 65.7326 15.3079C65.1507 16.376 64.3222 17.21 63.247 17.81C62.1781 18.404 60.9068 18.701 59.4331 18.701ZM59.4521 15.7309C60.1225 15.7309 60.6822 15.5509 61.1313 15.1909C61.5804 14.8249 61.9187 14.3269 62.1464 13.6969C62.3805 13.0669 62.4975 12.3499 62.4975 11.5459C62.4975 10.7419 62.3805 10.0249 62.1464 9.39484C61.9187 8.76483 61.5804 8.26682 61.1313 7.90082C60.6822 7.53481 60.1225 7.35181 59.4521 7.35181C58.7753 7.35181 58.2061 7.53481 57.7444 7.90082C57.289 8.26682 56.9443 8.76483 56.7102 9.39484C56.4826 10.0249 56.3687 10.7419 56.3687 11.5459C56.3687 12.3499 56.4826 13.0669 56.7102 13.6969C56.9443 14.3269 57.289 14.8249 57.7444 15.1909C58.2061 15.5509 58.7753 15.7309 59.4521 15.7309Z" fill="#5188FF"/>
<path d="M72.7915 18.701C71.3178 18.701 70.0434 18.404 68.9681 17.81C67.8992 17.21 67.0738 16.376 66.492 15.3079C65.9101 14.2339 65.6191 12.9889 65.6191 11.5729C65.6191 10.1449 65.9101 8.89683 66.492 7.82882C67.0738 6.7548 67.8992 5.92078 68.9681 5.32677C70.0434 4.72676 71.3178 4.42676 72.7915 4.42676C74.2652 4.42676 75.5365 4.72676 76.6054 5.32677C77.6806 5.92078 78.5091 6.7548 79.091 7.82882C79.6729 8.89683 79.9638 10.1449 79.9638 11.5729C79.9638 12.9889 79.6729 14.2339 79.091 15.3079C78.5091 16.376 77.6806 17.21 76.6054 17.81C75.5365 18.404 74.2652 18.701 72.7915 18.701ZM72.8105 15.7309C73.4809 15.7309 74.0406 15.5509 74.4897 15.1909C74.9388 14.8249 75.2771 14.3269 75.5048 13.6969C75.7389 13.0669 75.8559 12.3499 75.8559 11.5459C75.8559 10.7419 75.7389 10.0249 75.5048 9.39484C75.2771 8.76483 74.9388 8.26682 74.4897 7.90082C74.0406 7.53481 73.4809 7.35181 72.8105 7.35181C72.1337 7.35181 71.5645 7.53481 71.1028 7.90082C70.6474 8.26682 70.3027 8.76483 70.0686 9.39484C69.841 10.0249 69.7271 10.7419 69.7271 11.5459C69.7271 12.3499 69.841 13.0669 70.0686 13.6969C70.3027 14.3269 70.6474 14.8249 71.1028 15.1909C71.5645 15.5509 72.1337 15.7309 72.8105 15.7309Z" fill="#5188FF"/>
<path d="M52.9625 0V18.4323H48.9209V0H52.9625Z" fill="#5188FF"/>
<path d="M34.4502 18.4323V0H42.2297C43.6591 0 44.8514 0.201003 45.8064 0.60301C46.7615 1.00502 47.4793 1.56303 47.96 2.27704C48.4407 2.98505 48.681 3.80106 48.681 4.72508C48.681 5.44509 48.5292 6.0781 48.2257 6.62411C47.9221 7.16412 47.5046 7.60813 46.9733 7.95613C46.4484 8.29814 45.8475 8.54114 45.1708 8.68515V8.86515C45.9108 8.89515 46.6033 9.09315 47.2485 9.45916C47.8999 9.82516 48.4281 10.3382 48.8328 10.9982C49.2376 11.6522 49.44 12.4322 49.44 13.3382C49.44 14.3162 49.1839 15.1893 48.6716 15.9573C48.1656 16.7193 47.4161 17.3223 46.4231 17.7663C45.4301 18.2103 44.2062 18.4323 42.7515 18.4323H34.4502ZM38.5582 15.2463H41.9072C43.052 15.2463 43.8868 15.0393 44.4118 14.6252C44.9367 14.2052 45.1992 13.6472 45.1992 12.9512C45.1992 12.4412 45.0696 11.9912 44.8103 11.6012C44.5509 11.2112 44.1809 10.9052 43.7002 10.6832C43.2259 10.4612 42.6598 10.3502 42.002 10.3502H38.5582V15.2463ZM38.5582 7.71313H41.6036C42.1665 7.71313 42.6661 7.62013 43.1026 7.43413C43.5453 7.24212 43.8932 6.97212 44.1461 6.62411C44.4055 6.27611 44.5351 5.8591 44.5351 5.37309C44.5351 4.70708 44.2853 4.17007 43.7856 3.76206C43.2923 3.35406 42.5902 3.15005 41.6795 3.15005H38.5582V7.71313Z" fill="#5188FF"/>
<path d="M28.2641 18.701C26.7905 18.701 25.516 18.404 24.4408 17.81C23.3719 17.21 22.5465 16.376 21.9646 15.3079C21.3827 14.2339 21.0918 12.9889 21.0918 11.5729C21.0918 10.1449 21.3827 8.89683 21.9646 7.82882C22.5465 6.7548 23.3719 5.92078 24.4408 5.32677C25.516 4.72676 26.7905 4.42676 28.2641 4.42676C29.7378 4.42676 31.0091 4.72676 32.078 5.32677C33.1532 5.92078 33.9818 6.7548 34.5637 7.82882C35.1456 8.89683 35.4365 10.1449 35.4365 11.5729C35.4365 12.9889 35.1456 14.2339 34.5637 15.3079C33.9818 16.376 33.1532 17.21 32.078 17.81C31.0091 18.404 29.7378 18.701 28.2641 18.701ZM28.2831 15.7309C28.9536 15.7309 29.5133 15.5509 29.9624 15.1909C30.4114 14.8249 30.7498 14.3269 30.9775 13.6969C31.2115 13.0669 31.3285 12.3499 31.3285 11.5459C31.3285 10.7419 31.2115 10.0249 30.9775 9.39484C30.7498 8.76483 30.4114 8.26682 29.9624 7.90082C29.5133 7.53481 28.9536 7.35181 28.2831 7.35181C27.6064 7.35181 27.0371 7.53481 26.5754 7.90082C26.12 8.26682 25.7753 8.76483 25.5413 9.39484C25.3136 10.0249 25.1998 10.7419 25.1998 11.5459C25.1998 12.3499 25.3136 13.0669 25.5413 13.6969C25.7753 14.3269 26.12 14.8249 26.5754 15.1909C27.0371 15.5509 27.6064 15.7309 28.2831 15.7309Z" fill="#5188FF"/>
<path d="M0.516602 0H5.58278L10.9336 12.3842H11.1613L16.5121 0H21.5783V18.4323H17.5936V6.43511H17.4323L12.4041 18.3423H9.69076L4.66252 6.39011H4.50124V18.4323H0.516602V0Z" fill="#5188FF"/>
</svg>
