<svg width="81" height="26" viewBox="0 0 81 26" fill="none" xmlns="http://www.w3.org/2000/svg">
<path d="M70.0235 25.4443C70.9596 25.8148 72.0822 26.0001 73.3915 26.0001C74.7829 26.0001 76.0131 25.7823 77.082 25.3468C78.1572 24.9178 78.9984 24.2743 79.6056 23.4163C80.2128 22.5582 80.5164 21.4922 80.5164 20.2182V5.0957H76.5033L76.5223 17.4199V20.1597C76.5223 21.1867 76.2345 21.918 75.6589 22.3535C75.0897 22.7955 74.3655 23.0165 73.4863 23.0165C72.8981 23.0165 72.3985 22.9353 71.9874 22.7728C71.5826 22.6167 71.2569 22.4087 71.0102 22.1487C70.7635 21.8887 70.5833 21.6092 70.4694 21.3102L66.7314 21.827C66.8959 22.6135 67.2532 23.322 67.8035 23.9525C68.3538 24.583 69.0938 25.0803 70.0235 25.4443Z" fill="white"/>
<path d="M59.4331 20.2597C57.9594 20.2597 56.685 19.9379 55.6097 19.2944C54.5408 18.6444 53.7154 17.7409 53.1336 16.5838C52.5517 15.4203 52.2607 14.0716 52.2607 12.5375C52.2607 10.9905 52.5517 9.63848 53.1336 8.48146C53.7154 7.31794 54.5408 6.41443 55.6097 5.77091C56.685 5.1209 57.9594 4.7959 59.4331 4.7959C60.9068 4.7959 62.1781 5.1209 63.247 5.77091C64.3222 6.41443 65.1507 7.31794 65.7326 8.48146C66.3145 9.63848 66.6054 10.9905 66.6054 12.5375C66.6054 14.0716 66.3145 15.4203 65.7326 16.5838C65.1507 17.7409 64.3222 18.6444 63.247 19.2944C62.1781 19.9379 60.9068 20.2597 59.4331 20.2597ZM59.4521 17.0421C60.1225 17.0421 60.6822 16.8471 61.1313 16.4571C61.5804 16.0606 61.9187 15.5211 62.1464 14.8386C62.3805 14.1561 62.4975 13.3793 62.4975 12.5083C62.4975 11.6373 62.3805 10.8605 62.1464 10.178C61.9187 9.49548 61.5804 8.95597 61.1313 8.55946C60.6822 8.16296 60.1225 7.9647 59.4521 7.9647C58.7753 7.9647 58.2061 8.16296 57.7444 8.55946C57.289 8.95597 56.9443 9.49548 56.7102 10.178C56.4826 10.8605 56.3687 11.6373 56.3687 12.5083C56.3687 13.3793 56.4826 14.1561 56.7102 14.8386C56.9443 15.5211 57.289 16.0606 57.7444 16.4571C58.2061 16.8471 58.7753 17.0421 59.4521 17.0421Z" fill="white"/>
<path d="M72.7915 20.2597C71.3178 20.2597 70.0434 19.9379 68.9681 19.2944C67.8992 18.6444 67.0738 17.7409 66.492 16.5838C65.9101 15.4203 65.6191 14.0716 65.6191 12.5375C65.6191 10.9905 65.9101 9.63848 66.492 8.48146C67.0738 7.31794 67.8992 6.41443 68.9681 5.77091C70.0434 5.1209 71.3178 4.7959 72.7915 4.7959C74.2652 4.7959 75.5365 5.1209 76.6054 5.77091C77.6806 6.41443 78.5091 7.31794 79.091 8.48146C79.6729 9.63848 79.9638 10.9905 79.9638 12.5375C79.9638 14.0716 79.6729 15.4203 79.091 16.5838C78.5091 17.7409 77.6806 18.6444 76.6054 19.2944C75.5365 19.9379 74.2652 20.2597 72.7915 20.2597ZM72.8105 17.0421C73.4809 17.0421 74.0406 16.8471 74.4897 16.4571C74.9388 16.0606 75.2771 15.5211 75.5048 14.8386C75.7389 14.1561 75.8559 13.3793 75.8559 12.5083C75.8559 11.6373 75.7389 10.8605 75.5048 10.178C75.2771 9.49548 74.9388 8.95597 74.4897 8.55946C74.0406 8.16296 73.4809 7.9647 72.8105 7.9647C72.1337 7.9647 71.5645 8.16296 71.1028 8.55946C70.6474 8.95597 70.3027 9.49548 70.0686 10.178C69.841 10.8605 69.7271 11.6373 69.7271 12.5083C69.7271 13.3793 69.841 14.1561 70.0686 14.8386C70.3027 15.5211 70.6474 16.0606 71.1028 16.4571C71.5645 16.8471 72.1337 17.0421 72.8105 17.0421Z" fill="white"/>
<path d="M52.9625 0V19.9683H48.9209V0H52.9625Z" fill="white"/>
<path d="M34.4502 19.9683V0H42.2297C43.6591 0 44.8514 0.217754 45.8064 0.653261C46.7615 1.08877 47.4793 1.69328 47.96 2.46679C48.4407 3.2338 48.681 4.11782 48.681 5.11884C48.681 5.89885 48.5292 6.58461 48.2257 7.17612C47.9221 7.76113 47.5046 8.24214 46.9733 8.61915C46.4484 8.98965 45.8475 9.25291 45.1708 9.40891V9.60391C45.9108 9.63641 46.6033 9.85092 47.2485 10.2474C47.8999 10.6439 48.4281 11.1997 48.8328 11.9147C49.2376 12.6232 49.44 13.4682 49.44 14.4497C49.44 15.5093 49.1839 16.455 48.6716 17.287C48.1656 18.1126 47.4161 18.7658 46.4231 19.2468C45.4301 19.7278 44.2062 19.9683 42.7515 19.9683H34.4502ZM38.5582 16.5168H41.9072C43.052 16.5168 43.8868 16.2925 44.4118 15.844C44.9367 15.389 45.1992 14.7845 45.1992 14.0305C45.1992 13.478 45.0696 12.9905 44.8103 12.568C44.5509 12.1455 44.1809 11.8139 43.7002 11.5734C43.2259 11.3329 42.6598 11.2127 42.002 11.2127H38.5582V16.5168ZM38.5582 8.35589H41.6036C42.1665 8.35589 42.6661 8.25514 43.1026 8.05364C43.5453 7.84563 43.8932 7.55313 44.1461 7.17612C44.4055 6.79912 44.5351 6.34736 44.5351 5.82085C44.5351 5.09934 44.2853 4.51758 43.7856 4.07557C43.2923 3.63356 42.5902 3.41256 41.6795 3.41256H38.5582V8.35589Z" fill="white"/>
<path d="M28.2641 20.2597C26.7905 20.2597 25.516 19.9379 24.4408 19.2944C23.3719 18.6444 22.5465 17.7409 21.9646 16.5838C21.3827 15.4203 21.0918 14.0716 21.0918 12.5375C21.0918 10.9905 21.3827 9.63848 21.9646 8.48146C22.5465 7.31794 23.3719 6.41443 24.4408 5.77091C25.516 5.1209 26.7905 4.7959 28.2641 4.7959C29.7378 4.7959 31.0091 5.1209 32.078 5.77091C33.1532 6.41443 33.9818 7.31794 34.5637 8.48146C35.1456 9.63848 35.4365 10.9905 35.4365 12.5375C35.4365 14.0716 35.1456 15.4203 34.5637 16.5838C33.9818 17.7409 33.1532 18.6444 32.078 19.2944C31.0091 19.9379 29.7378 20.2597 28.2641 20.2597ZM28.2831 17.0421C28.9536 17.0421 29.5133 16.8471 29.9624 16.4571C30.4114 16.0606 30.7498 15.5211 30.9775 14.8386C31.2115 14.1561 31.3285 13.3793 31.3285 12.5083C31.3285 11.6373 31.2115 10.8605 30.9775 10.178C30.7498 9.49548 30.4114 8.95597 29.9624 8.55946C29.5133 8.16296 28.9536 7.9647 28.2831 7.9647C27.6064 7.9647 27.0371 8.16296 26.5754 8.55946C26.12 8.95597 25.7753 9.49548 25.5413 10.178C25.3136 10.8605 25.1998 11.6373 25.1998 12.5083C25.1998 13.3793 25.3136 14.1561 25.5413 14.8386C25.7753 15.5211 26.12 16.0606 26.5754 16.4571C27.0371 16.8471 27.6064 17.0421 28.2831 17.0421Z" fill="white"/>
<path d="M0.516602 0H5.58278L10.9336 13.4162H11.1613L16.5121 0H21.5783V19.9683H17.5936V6.97137H17.4323L12.4041 19.8708H9.69076L4.66252 6.92262H4.50124V19.9683H0.516602V0Z" fill="white"/>
</svg>
